<?xml version="1.0" standalone="no"?>
<!DOCTYPE svg PUBLIC "-//W3C//DTD SVG 20010904//EN"
 "http://www.w3.org/TR/2001/REC-SVG-20010904/DTD/svg10.dtd">
<svg version="1.0" xmlns="http://www.w3.org/2000/svg"
 width="1934.000000pt" height="1934.000000pt" viewBox="0 0 1934.000000 1934.000000"
 preserveAspectRatio="xMidYMid meet">
<metadata>
Created by potrace 1.11, written by Peter Selinger 2001-2013
</metadata>
<g transform="translate(0.000000,1934.000000) scale(0.100000,-0.100000)"
fill="#000000" stroke="none">
<path d="M8649 18876 c-2 -2 -53 -6 -114 -10 -60 -3 -130 -8 -155 -11 -130
-13 -197 -21 -250 -30 -14 -2 -45 -7 -70 -10 -25 -3 -57 -8 -72 -11 -15 -3
-42 -7 -60 -9 -37 -4 -120 -14 -158 -20 -14 -3 -43 -7 -65 -11 -22 -3 -89 -17
-150 -31 -60 -14 -117 -26 -125 -28 -41 -9 -256 -57 -265 -59 -60 -14 -149
-47 -254 -95 -69 -32 -207 -84 -306 -116 -247 -79 -426 -151 -623 -252 -92
-47 -293 -148 -447 -225 -284 -143 -417 -215 -423 -230 -2 -4 -8 -8 -12 -8 -5
0 -26 -12 -47 -26 -21 -14 -47 -30 -58 -35 -82 -37 -243 -162 -400 -310 -114
-107 -227 -195 -345 -267 -133 -81 -194 -123 -312 -213 -40 -31 -109 -78 -153
-105 -117 -70 -150 -98 -212 -183 -88 -118 -167 -189 -298 -266 -96 -56 -98
-59 -215 -210 -52 -66 -132 -156 -178 -200 -170 -160 -310 -305 -443 -460 -48
-55 -101 -116 -118 -135 -18 -19 -55 -62 -84 -94 -29 -32 -70 -80 -93 -105
-23 -25 -83 -93 -134 -151 -51 -58 -124 -139 -162 -181 -78 -87 -143 -173
-208 -274 -24 -38 -91 -141 -148 -229 -148 -228 -187 -311 -287 -621 -48 -148
-109 -337 -136 -420 -26 -82 -66 -206 -88 -275 -32 -99 -147 -536 -167 -635
-14 -70 -92 -364 -168 -630 -35 -126 -72 -270 -81 -320 -48 -269 -59 -371 -59
-560 0 -117 4 -152 23 -212 12 -40 20 -76 18 -80 -5 -8 -13 -106 -23 -293 -3
-58 -7 -127 -9 -155 -16 -222 -22 -474 -12 -565 4 -30 9 -104 12 -165 3 -60 8
-137 10 -170 3 -33 7 -109 10 -170 7 -130 14 -214 21 -236 2 -9 7 -32 9 -50 3
-19 7 -45 10 -59 3 -14 12 -65 21 -115 21 -125 23 -137 28 -161 2 -12 7 -39
10 -59 4 -21 13 -62 22 -90 8 -29 17 -63 19 -76 13 -67 25 -139 30 -184 5 -47
11 -83 21 -145 14 -80 42 -167 80 -256 24 -56 44 -108 44 -116 0 -8 3 -18 7
-22 12 -11 32 -98 33 -138 0 -43 19 -95 123 -338 101 -237 109 -253 209 -428
58 -102 97 -184 118 -248 18 -56 47 -120 70 -153 47 -70 146 -273 193 -396 30
-79 53 -127 92 -193 67 -115 167 -305 334 -639 171 -342 239 -471 291 -553 6
-8 23 -40 39 -70 16 -30 61 -91 101 -135 39 -44 93 -109 118 -144 79 -109 86
-114 142 -107 l48 6 117 -138 c64 -75 136 -159 159 -187 24 -27 72 -84 107
-125 35 -41 192 -203 349 -360 265 -265 294 -291 405 -361 66 -42 161 -98 210
-124 99 -53 141 -80 259 -168 44 -32 127 -87 185 -121 158 -94 242 -145 281
-171 102 -65 227 -139 320 -190 58 -32 128 -70 155 -85 169 -93 159 -88 650
-290 149 -61 279 -115 290 -119 11 -5 36 -16 55 -24 30 -13 146 -61 295 -122
22 -9 49 -20 60 -25 11 -5 72 -30 135 -56 107 -45 164 -77 250 -145 27 -21 50
-29 103 -34 37 -3 78 -8 90 -11 12 -2 51 -6 87 -10 36 -3 97 -12 135 -19 64
-13 82 -17 133 -29 38 -10 197 -70 507 -193 83 -33 173 -67 200 -76 42 -14
385 -93 480 -111 63 -12 131 -25 165 -30 19 -4 58 -11 85 -16 44 -8 78 -12
200 -25 17 -2 71 -9 120 -15 50 -7 97 -12 105 -12 8 0 35 -4 60 -8 25 -5 75
-11 112 -15 37 -3 75 -7 85 -9 10 -2 47 -7 83 -11 36 -3 79 -8 95 -11 17 -2
62 -7 100 -11 39 -5 -481 -10 -1155 -13 l-1225 -5 1429 -2 c1108 -2 1433 0
1445 10 10 8 13 8 8 1 -4 -8 2 -11 17 -10 13 0 22 4 19 9 -2 4 14 8 36 8 23 1
44 2 49 3 4 1 32 6 62 10 76 11 81 12 141 29 123 35 241 51 456 62 102 5 126
10 180 35 50 24 163 58 243 75 8 2 186 47 395 100 209 53 391 98 405 101 14 3
43 10 65 16 22 6 45 13 50 14 6 2 23 6 39 9 16 3 33 8 36 10 4 2 143 47 310
100 166 52 317 102 334 109 61 27 342 134 396 151 30 9 64 20 75 25 11 5 124
43 250 86 157 53 268 97 350 139 66 35 180 93 253 131 114 59 253 150 287 189
6 6 55 49 110 96 55 46 113 96 130 110 16 15 68 59 115 99 47 39 96 82 110 93
29 26 213 182 250 213 14 12 48 41 75 65 51 44 130 111 214 183 137 115 372
360 510 531 93 116 90 112 131 165 19 25 41 52 47 60 13 15 125 170 153 210 8
12 53 75 100 140 47 65 92 129 100 141 29 42 73 103 82 114 14 16 490 679 559
778 57 82 159 266 159 287 0 5 51 114 114 242 176 362 186 383 238 543 27 83
51 157 53 165 2 8 32 94 66 190 107 305 165 486 264 830 23 79 55 205 60 236
3 22 17 93 30 159 13 66 27 134 30 150 4 17 8 39 10 50 2 11 20 99 40 195 42
204 49 243 70 370 13 83 35 244 40 295 4 33 8 69 10 80 1 11 6 56 10 100 4 44
8 90 10 103 4 24 14 158 20 257 6 100 6 365 0 455 -3 47 -7 128 -10 180 -13
291 -16 338 -20 375 -2 22 -7 85 -10 140 -6 105 -12 170 -20 220 -3 17 -7 50
-10 75 -3 25 -14 92 -25 150 -12 58 -25 128 -30 155 -5 28 -12 64 -15 80 -3
17 -13 68 -21 115 -9 47 -18 94 -20 105 -6 27 -23 114 -29 145 -13 71 -63 272
-80 324 -7 23 -54 169 -105 326 -50 157 -99 305 -107 330 -8 25 -17 56 -19 70
-3 14 -9 41 -14 60 -5 19 -12 51 -15 70 -30 173 -180 696 -245 855 -5 11 -34
90 -65 175 -31 85 -60 166 -65 180 -13 34 -53 172 -109 380 -15 54 -73 213
-161 440 -10 25 -27 70 -39 101 -22 57 -28 66 -130 174 -31 33 -97 105 -146
160 -111 124 -215 228 -278 279 -26 22 -65 55 -85 73 -20 19 -71 64 -114 100
-69 59 -81 75 -135 179 l-58 114 -56 0 -56 0 -124 132 c-177 187 -179 189
-345 364 -268 283 -334 353 -425 450 -65 70 -217 205 -293 259 -15 11 -40 30
-54 43 -15 12 -83 60 -152 106 -109 73 -190 121 -390 234 -25 14 -143 81 -263
149 -119 68 -240 132 -269 144 -97 38 -343 160 -446 221 -56 33 -133 73 -170
88 -37 15 -105 47 -152 70 -47 23 -94 46 -105 51 -11 4 -40 17 -65 27 -25 11
-117 50 -205 87 -88 37 -178 75 -200 85 -39 18 -113 49 -230 97 -121 49 -218
82 -258 88 -23 3 -64 10 -92 15 -27 5 -81 12 -120 15 -255 22 -369 52 -442
116 -18 15 -47 30 -65 33 -42 7 -129 19 -148 22 -8 1 -71 16 -140 34 -107 27
-142 32 -249 32 -68 0 -138 4 -155 9 -17 4 -44 10 -61 12 -34 6 -346 72 -415
88 -57 14 -68 16 -165 34 -90 16 -130 22 -230 31 -38 4 -81 8 -95 9 -14 1 -59
5 -100 9 -81 7 -142 13 -217 21 -64 6 -165 16 -238 22 -68 5 -831 13 -836 9z"/>
<path d="M5108 423 c7 -3 16 -2 19 1 4 3 -2 6 -13 5 -11 0 -14 -3 -6 -6z"/>
<path d="M5198 423 c7 -3 16 -2 19 1 4 3 -2 6 -13 5 -11 0 -14 -3 -6 -6z"/>
<path d="M5348 423 c7 -3 16 -2 19 1 4 3 -2 6 -13 5 -11 0 -14 -3 -6 -6z"/>
<path d="M5438 423 c7 -3 16 -2 19 1 4 3 -2 6 -13 5 -11 0 -14 -3 -6 -6z"/>
<path d="M5588 423 c7 -3 16 -2 19 1 4 3 -2 6 -13 5 -11 0 -14 -3 -6 -6z"/>
<path d="M5708 423 c7 -3 16 -2 19 1 4 3 -2 6 -13 5 -11 0 -14 -3 -6 -6z"/>
<path d="M5858 423 c7 -3 16 -2 19 1 4 3 -2 6 -13 5 -11 0 -14 -3 -6 -6z"/>
<path d="M6108 423 c6 -2 18 -2 25 0 6 3 1 5 -13 5 -14 0 -19 -2 -12 -5z"/>
<path d="M6188 423 c7 -3 16 -2 19 1 4 3 -2 6 -13 5 -11 0 -14 -3 -6 -6z"/>
<path d="M6228 423 c6 -2 18 -2 25 0 6 3 1 5 -13 5 -14 0 -19 -2 -12 -5z"/>
<path d="M6308 423 c7 -3 16 -2 19 1 4 3 -2 6 -13 5 -11 0 -14 -3 -6 -6z"/>
<path d="M6348 423 c6 -2 18 -2 25 0 6 3 1 5 -13 5 -14 0 -19 -2 -12 -5z"/>
<path d="M6428 423 c7 -3 16 -2 19 1 4 3 -2 6 -13 5 -11 0 -14 -3 -6 -6z"/>
<path d="M6468 423 c6 -2 18 -2 25 0 6 3 1 5 -13 5 -14 0 -19 -2 -12 -5z"/>
<path d="M6548 423 c7 -3 16 -2 19 1 4 3 -2 6 -13 5 -11 0 -14 -3 -6 -6z"/>
<path d="M6588 423 c6 -2 18 -2 25 0 6 3 1 5 -13 5 -14 0 -19 -2 -12 -5z"/>
<path d="M6668 423 c7 -3 16 -2 19 1 4 3 -2 6 -13 5 -11 0 -14 -3 -6 -6z"/>
<path d="M6713 423 c9 -2 23 -2 30 0 6 3 -1 5 -18 5 -16 0 -22 -2 -12 -5z"/>
<path d="M6778 423 c12 -2 30 -2 40 0 9 3 -1 5 -23 4 -22 0 -30 -2 -17 -4z"/>
<path d="M6858 423 c12 -2 30 -2 40 0 9 3 -1 5 -23 4 -22 0 -30 -2 -17 -4z"/>
<path d="M6938 423 c12 -2 30 -2 40 0 9 3 -1 5 -23 4 -22 0 -30 -2 -17 -4z"/>
<path d="M7018 423 c12 -2 30 -2 40 0 9 3 -1 5 -23 4 -22 0 -30 -2 -17 -4z"/>
<path d="M7088 423 c6 -2 18 -2 25 0 6 3 1 5 -13 5 -14 0 -19 -2 -12 -5z"/>
<path d="M7148 423 c12 -2 32 -2 45 0 12 2 2 4 -23 4 -25 0 -35 -2 -22 -4z"/>
<path d="M7268 423 c12 -2 32 -2 45 0 12 2 2 4 -23 4 -25 0 -35 -2 -22 -4z"/>
<path d="M7388 423 c12 -2 32 -2 45 0 12 2 2 4 -23 4 -25 0 -35 -2 -22 -4z"/>
<path d="M7518 423 c18 -2 45 -2 60 0 15 2 0 4 -33 4 -33 0 -45 -2 -27 -4z"/>
<path d="M10588 423 c7 -3 16 -2 19 1 4 3 -2 6 -13 5 -11 0 -14 -3 -6 -6z"/>
<path d="M10628 423 c6 -2 18 -2 25 0 6 3 1 5 -13 5 -14 0 -19 -2 -12 -5z"/>
<path d="M10713 423 c9 -2 23 -2 30 0 6 3 -1 5 -18 5 -16 0 -22 -2 -12 -5z"/>
<path d="M10788 423 c7 -3 16 -2 19 1 4 3 -2 6 -13 5 -11 0 -14 -3 -6 -6z"/>
<path d="M10828 423 c7 -3 16 -2 19 1 4 3 -2 6 -13 5 -11 0 -14 -3 -6 -6z"/>
<path d="M10898 423 c7 -3 16 -2 19 1 4 3 -2 6 -13 5 -11 0 -14 -3 -6 -6z"/>
<path d="M10938 423 c7 -3 16 -2 19 1 4 3 -2 6 -13 5 -11 0 -14 -3 -6 -6z"/>
<path d="M11268 423 c7 -3 16 -2 19 1 4 3 -2 6 -13 5 -11 0 -14 -3 -6 -6z"/>
<path d="M11308 423 c7 -3 16 -2 19 1 4 3 -2 6 -13 5 -11 0 -14 -3 -6 -6z"/>
<path d="M11388 423 c7 -3 16 -2 19 1 4 3 -2 6 -13 5 -11 0 -14 -3 -6 -6z"/>
<path d="M11428 423 c7 -3 16 -2 19 1 4 3 -2 6 -13 5 -11 0 -14 -3 -6 -6z"/>
<path d="M11508 423 c7 -3 16 -2 19 1 4 3 -2 6 -13 5 -11 0 -14 -3 -6 -6z"/>
<path d="M11548 423 c7 -3 16 -2 19 1 4 3 -2 6 -13 5 -11 0 -14 -3 -6 -6z"/>
<path d="M11628 423 c7 -3 16 -2 19 1 4 3 -2 6 -13 5 -11 0 -14 -3 -6 -6z"/>
<path d="M11668 423 c7 -3 16 -2 19 1 4 3 -2 6 -13 5 -11 0 -14 -3 -6 -6z"/>
<path d="M11788 423 c7 -3 16 -2 19 1 4 3 -2 6 -13 5 -11 0 -14 -3 -6 -6z"/>
<path d="M12018 423 c7 -3 16 -2 19 1 4 3 -2 6 -13 5 -11 0 -14 -3 -6 -6z"/>
<path d="M12238 423 c7 -3 16 -2 19 1 4 3 -2 6 -13 5 -11 0 -14 -3 -6 -6z"/>
<path d="M12388 423 c7 -3 16 -2 19 1 4 3 -2 6 -13 5 -11 0 -14 -3 -6 -6z"/>
</g>
</svg>
